<?xml version="1.0" encoding="utf-8" ?>
<svg baseProfile="tiny" height="512px" version="1.2" viewBox="0,0,512,512" width="512px" xmlns="http://www.w3.org/2000/svg" xmlns:ev="http://www.w3.org/2001/xml-events" xmlns:xlink="http://www.w3.org/1999/xlink"><defs /><path d="M 104 13 L 101 16 L 101 23 L 100 24 L 100 29 L 99 30 L 99 33 L 98 34 L 98 36 L 97 37 L 97 39 L 96 40 L 96 42 L 95 43 L 95 44 L 94 45 L 94 46 L 93 47 L 93 48 L 92 49 L 92 50 L 91 51 L 91 52 L 90 53 L 90 54 L 88 56 L 88 57 L 86 59 L 86 60 L 82 64 L 82 65 L 73 74 L 72 74 L 68 78 L 67 78 L 65 80 L 64 80 L 51 93 L 51 94 L 47 98 L 47 99 L 45 101 L 45 102 L 43 104 L 43 105 L 42 106 L 42 107 L 41 108 L 41 109 L 40 110 L 40 111 L 39 112 L 39 113 L 38 114 L 38 115 L 37 116 L 37 118 L 36 119 L 36 120 L 35 121 L 35 123 L 34 124 L 34 127 L 33 128 L 33 131 L 32 132 L 32 136 L 31 137 L 31 145 L 30 146 L 30 156 L 31 157 L 31 165 L 32 166 L 32 170 L 33 171 L 33 174 L 34 175 L 34 178 L 35 179 L 35 181 L 36 182 L 36 183 L 37 184 L 37 186 L 38 187 L 38 188 L 39 189 L 39 190 L 40 191 L 40 192 L 41 193 L 41 194 L 42 195 L 42 196 L 44 198 L 44 199 L 45 200 L 45 201 L 47 203 L 47 204 L 51 208 L 51 209 L 63 221 L 64 221 L 67 224 L 68 224 L 70 226 L 71 226 L 73 228 L 74 228 L 75 229 L 76 229 L 78 231 L 79 231 L 80 232 L 82 232 L 83 233 L 84 233 L 85 234 L 86 234 L 87 235 L 90 235 L 93 232 L 93 227 L 92 226 L 92 223 L 91 222 L 91 216 L 90 215 L 90 200 L 91 199 L 91 193 L 92 192 L 92 189 L 93 188 L 93 185 L 94 184 L 94 183 L 95 182 L 96 183 L 96 185 L 97 186 L 97 187 L 98 188 L 98 190 L 99 191 L 99 192 L 100 193 L 100 194 L 101 195 L 101 196 L 102 197 L 102 198 L 104 200 L 104 201 L 105 202 L 105 203 L 107 205 L 107 206 L 110 209 L 110 210 L 115 215 L 115 216 L 119 220 L 120 220 L 126 226 L 127 226 L 129 228 L 130 228 L 132 230 L 133 230 L 135 232 L 136 232 L 137 233 L 138 233 L 139 234 L 140 234 L 141 235 L 142 235 L 143 236 L 144 236 L 145 237 L 149 237 L 150 236 L 151 236 L 152 235 L 154 235 L 155 234 L 156 234 L 157 233 L 159 233 L 160 232 L 161 232 L 162 231 L 163 231 L 165 229 L 166 229 L 167 228 L 168 228 L 170 226 L 171 226 L 173 224 L 174 224 L 177 221 L 178 221 L 191 208 L 191 207 L 194 204 L 194 203 L 196 201 L 196 200 L 197 199 L 197 198 L 199 196 L 199 195 L 200 194 L 200 193 L 201 192 L 201 191 L 202 190 L 202 189 L 203 188 L 203 187 L 204 186 L 204 184 L 205 183 L 205 182 L 206 181 L 206 179 L 207 178 L 207 175 L 208 174 L 208 171 L 209 170 L 209 166 L 210 165 L 210 157 L 211 156 L 211 145 L 210 144 L 210 137 L 209 136 L 209 132 L 208 131 L 208 128 L 207 127 L 207 124 L 206 123 L 206 121 L 205 120 L 205 119 L 204 118 L 204 116 L 203 115 L 203 114 L 202 113 L 202 112 L 201 111 L 201 110 L 200 109 L 200 108 L 199 107 L 199 106 L 198 105 L 198 104 L 196 102 L 196 101 L 194 99 L 194 98 L 190 94 L 190 93 L 184 87 L 183 87 L 182 86 L 180 86 L 179 87 L 178 87 L 177 88 L 177 89 L 176 90 L 176 91 L 174 93 L 174 94 L 173 95 L 173 96 L 170 99 L 170 100 L 158 112 L 157 112 L 155 114 L 154 114 L 152 116 L 151 116 L 149 118 L 148 117 L 148 115 L 149 114 L 149 112 L 150 111 L 150 107 L 151 106 L 151 102 L 152 101 L 152 78 L 151 77 L 151 72 L 150 71 L 150 68 L 149 67 L 149 64 L 148 63 L 148 61 L 147 60 L 147 58 L 146 57 L 146 56 L 145 55 L 145 53 L 144 52 L 144 51 L 143 50 L 143 49 L 142 48 L 142 47 L 140 45 L 140 44 L 139 43 L 139 42 L 137 40 L 137 39 L 134 36 L 134 35 L 128 29 L 128 28 L 126 26 L 125 26 L 119 20 L 118 20 L 115 17 L 114 17 L 112 15 L 111 15 L 110 14 L 109 14 L 108 13 Z" fill="none" stroke="white" stroke-width="5" /></svg>